<svg xmlns="http://www.w3.org/2000/svg" xmlns:xlink="http://www.w3.org/1999/xlink" width="500" zoomAndPan="magnify" viewBox="0 0 375 149.999998" height="200" preserveAspectRatio="xMidYMid meet" version="1.0"><defs><g/></defs><g fill="#9d3be1" fill-opacity="1"><g transform="translate(46.721657, 132.503397)"><g><path d="M 34.042969 -102.859375 C 31.835938 -102.859375 25.46875 -102.859375 23.632812 -94.285156 C 4.164062 -2.203125 4.039062 -1.960938 4.039062 -1.835938 C 4.039062 -0.734375 5.019531 0 6.121094 0 L 20.695312 0 C 22.039062 0 23.265625 -1.101562 23.632812 -2.449219 L 41.632812 -87.0625 L 47.511719 -87.0625 C 29.511719 -2.082031 29.386719 -1.960938 29.386719 -1.714844 C 29.386719 -0.613281 30.246094 0.121094 31.347656 0.121094 L 45.917969 0.121094 C 47.265625 0.121094 48.613281 -0.980469 48.980469 -2.328125 L 66.980469 -87.0625 L 72.980469 -87.0625 C 54.980469 -2.203125 54.859375 -1.960938 54.859375 -1.835938 C 54.859375 -0.734375 55.835938 0 56.9375 0 L 71.386719 0 C 72.734375 0 73.960938 -1.101562 74.328125 -2.449219 C 93.917969 -95.386719 94.042969 -96.246094 94.042969 -97.101562 C 94.042969 -102.859375 88.898438 -102.859375 86.9375 -102.859375 L 69.0625 -102.859375 C 60.492188 -102.859375 59.144531 -96.734375 58.777344 -94.53125 L 58.164062 -94.53125 C 58.285156 -95.386719 58.410156 -96.367188 58.410156 -97.347656 C 58.410156 -99.917969 57.304688 -102.859375 51.304688 -102.859375 Z M 34.042969 -102.859375 "/></g></g></g><g fill="#9d3be1" fill-opacity="1"><g transform="translate(130.352639, 132.503397)"><g><path d="M 24.980469 -100.410156 C 5.144531 -7.59375 5.144531 -6.613281 5.144531 -5.878906 C 5.144531 0 10.285156 0 12.246094 0 L 46.164062 0 C 47.511719 0 48.734375 -1.101562 49.101562 -2.449219 C 69.675781 -100.410156 69.796875 -100.53125 69.796875 -100.777344 C 69.796875 -101.878906 68.9375 -102.613281 67.835938 -102.613281 L 53.265625 -102.613281 C 51.917969 -102.613281 50.570312 -101.511719 50.203125 -100.164062 L 32.328125 -15.796875 L 26.449219 -15.796875 L 44.449219 -100.898438 C 44.449219 -102 43.714844 -102.859375 42.488281 -102.859375 L 27.917969 -102.859375 C 26.570312 -102.859375 25.226562 -101.753906 24.980469 -100.410156 Z M 24.980469 -100.410156 "/></g></g></g><g fill="#9d3be1" fill-opacity="1"><g transform="translate(188.75983, 132.503397)"><g><path d="M 4.164062 -2.449219 C 4.164062 -2.203125 4.039062 -1.960938 4.039062 -1.835938 C 4.039062 -0.734375 5.019531 0 6.121094 0 L 20.695312 0 C 22.039062 0 23.265625 -1.101562 23.632812 -2.449219 L 30.734375 -36.246094 L 46.410156 -36.246094 C 47.753906 -36.246094 49.101562 -37.347656 49.46875 -38.695312 C 51.917969 -50.9375 52.042969 -51.0625 52.042969 -51.304688 C 52.042969 -52.410156 51.183594 -53.144531 50.082031 -53.144531 L 34.410156 -53.144531 L 41.632812 -87.0625 L 60.859375 -87.0625 C 62.203125 -87.0625 63.550781 -88.164062 63.796875 -89.511719 L 66.246094 -100.898438 C 66.246094 -102 65.511719 -102.859375 64.285156 -102.859375 L 27.917969 -102.859375 C 26.570312 -102.859375 25.226562 -101.753906 24.980469 -100.410156 Z M 4.164062 -2.449219 "/></g></g></g><g fill="#9d3be1" fill-opacity="1"><g transform="translate(241.90186, 132.503397)"><g><path d="M 23.632812 -94.285156 C 5.144531 -7.59375 5.144531 -6.613281 5.144531 -5.878906 C 5.144531 -0.121094 10.164062 0 12.121094 0 L 40.164062 0 C 42.367188 0 48.613281 -0.121094 50.449219 -8.570312 C 68.816406 -95.386719 68.9375 -96.246094 68.9375 -97.101562 C 68.9375 -102.734375 63.917969 -102.859375 61.960938 -102.859375 L 33.796875 -102.859375 C 31.46875 -102.859375 25.46875 -102.613281 23.632812 -94.285156 Z M 32.328125 -15.796875 L 26.449219 -15.796875 L 41.632812 -87.0625 L 47.511719 -87.0625 Z M 32.328125 -15.796875 "/></g></g></g><path stroke-linecap="butt" transform="matrix(1.148039, 0, 0, 1.148039, -44.120358, 17.355239)" fill="none" stroke-linejoin="miter" d="M 105.488318 7.397323 C 103.559078 7.397323 98.012937 7.397323 96.427353 14.869301 C 79.448677 95.073983 79.343198 95.281538 79.343198 95.410834 C 79.343198 96.349935 80.204041 96.999821 81.16696 96.999821 L 93.848228 96.999821 C 95.018701 96.999821 96.087099 96.036902 96.427353 94.863025 L 112.102857 21.170806 L 117.206667 21.170806 C 101.531164 95.176059 101.425685 95.281538 101.425685 95.516313 C 101.425685 96.479232 102.181049 97.105299 103.143968 97.105299 L 115.825236 97.105299 C 116.999112 97.105299 118.169586 96.138978 118.48262 94.968504 L 134.185343 21.170806 L 139.39123 21.170806 C 123.715727 95.073983 123.610248 95.281538 123.610248 95.410834 C 123.610248 96.349935 124.471091 96.999821 125.43401 96.999821 L 138.013201 96.999821 C 139.183675 96.999821 140.252073 96.036902 140.565107 94.863025 C 157.645859 13.906383 157.751338 13.178239 157.751338 12.422875 C 157.751338 7.397323 153.270192 7.397323 151.551909 7.397323 L 135.981885 7.397323 C 128.506504 7.397323 127.33603 12.735909 127.022996 14.661746 L 126.502407 14.661746 C 126.607886 13.906383 126.709962 13.04554 126.709962 12.21532 C 126.709962 9.973046 125.747043 7.397323 120.513936 7.397323 Z M 170.442814 9.530716 C 153.154506 90.385282 153.154506 91.246125 153.154506 91.86879 C 153.154506 96.999821 157.632249 96.999821 159.350532 96.999821 L 188.88118 96.999821 C 190.051654 96.999821 191.120051 96.036902 191.433085 94.863025 C 209.37468 9.530716 209.476757 9.428639 209.476757 9.217682 C 209.476757 8.254763 208.724795 7.632098 207.758474 7.632098 L 195.077206 7.632098 C 193.906732 7.632098 192.736258 8.567797 192.396004 9.738271 L 176.822577 83.250155 L 171.718766 83.250155 L 187.397672 9.115606 C 187.397672 8.152687 186.744384 7.397323 185.679389 7.397323 L 172.994719 7.397323 C 171.824245 7.397323 170.653771 8.360242 170.442814 9.530716 Z M 203.168447 94.863025 C 203.168447 95.073983 203.06637 95.281538 203.06637 95.410834 C 203.06637 96.349935 203.923811 96.999821 204.890132 96.999821 L 217.5714 96.999821 C 218.741874 96.999821 219.810272 96.036902 220.147123 94.863025 L 226.319331 65.437856 L 239.963518 65.437856 C 241.137395 65.437856 242.307868 64.474937 242.648122 63.304463 C 244.781515 52.627292 244.886994 52.525216 244.886994 52.314258 C 244.886994 51.351339 244.13163 50.701454 243.168711 50.701454 L 229.521122 50.701454 L 235.822627 21.170806 L 252.566528 21.170806 C 253.740404 21.170806 254.910878 20.207887 255.118433 19.037413 L 257.255228 9.115606 C 257.255228 8.152687 256.605343 7.397323 255.536945 7.397323 L 223.872905 7.397323 C 222.699028 7.397323 221.528554 8.360242 221.321 9.530716 Z M 266.438685 14.869301 C 250.317448 90.385282 250.317448 91.246125 250.317448 91.86879 C 250.317448 96.894342 254.693115 96.999821 256.411398 96.999821 L 280.811015 96.999821 C 282.740256 96.999821 288.180918 96.894342 289.797124 89.527842 C 305.785661 13.906383 305.887738 13.178239 305.887738 12.422875 C 305.887738 7.499399 301.512071 7.397323 299.821008 7.397323 L 275.264874 7.397323 C 273.260778 7.397323 268.027671 7.632098 266.438685 14.869301 Z M 273.988922 83.250155 L 268.885111 83.250155 L 282.114188 21.170806 L 287.217999 21.170806 Z M 273.988922 83.250155 " stroke="#79ffa0" stroke-width="2.000006" stroke-opacity="1" stroke-miterlimit="4"/></svg>